<?xml version="1.0" standalone="no"?>
<!DOCTYPE svg PUBLIC "-//W3C//DTD SVG 20010904//EN"
 "http://www.w3.org/TR/2001/REC-SVG-20010904/DTD/svg10.dtd">
<svg version="1.0" xmlns="http://www.w3.org/2000/svg"
 width="1024.000000pt" height="1024.000000pt" viewBox="0 0 1024.000000 1024.000000"
 preserveAspectRatio="xMidYMid meet">

<g transform="translate(0.000000,1024.000000) scale(0.100000,-0.100000)"
fill="#000000" stroke="none">
<path d="M5220 8080 c-944 -5 -966 -5 -999 -25 -47 -28 -84 -98 -78 -148 6
-47 39 -96 85 -128 l36 -24 995 -5 996 -5 70 -24 c225 -75 401 -221 490 -406
78 -160 75 -116 75 -1257 0 -640 -4 -1036 -10 -1076 -31 -188 -115 -346 -256
-481 -105 -101 -201 -156 -340 -196 l-89 -25 -1070 2 -1070 3 -81 31 c-282
106 -490 344 -548 626 -14 68 -16 209 -16 1135 0 630 -4 1082 -10 1117 -12 76
-38 125 -81 154 -28 20 -44 23 -92 20 -95 -7 -146 -64 -167 -188 -7 -45 -10
-402 -7 -1170 3 -1100 3 -1105 25 -1183 65 -231 167 -406 338 -573 182 -180
407 -289 648 -314 56 -6 504 -6 1176 -2 l1085 8 109 37 c133 46 226 94 331
171 216 160 354 357 442 633 l38 118 3 1080 c2 771 0 1103 -8 1160 -22 149
-86 315 -177 452 -54 83 -202 233 -288 292 -149 103 -340 175 -504 189 -47 4
-520 5 -1051 2z"/>
<path d="M2857 7985 c-44 -15 -83 -48 -103 -87 -18 -35 -18 -121 1 -157 20
-39 69 -78 113 -91 22 -6 171 -10 369 -10 182 0 334 -3 336 -7 6 -9 186 -901
256 -1268 174 -906 221 -1138 239 -1177 11 -25 39 -61 64 -82 l45 -37 -14 -52
c-20 -72 -12 -180 16 -235 32 -62 92 -124 153 -158 48 -26 62 -29 148 -29 78
0 103 4 141 23 67 33 121 83 154 143 25 46 30 68 33 148 l4 93 30 -6 c17 -3
191 -6 387 -6 l356 0 -3 -63 c-7 -123 60 -234 180 -297 123 -66 269 -49 372
41 76 67 100 117 104 224 3 63 -1 103 -11 134 -15 43 -15 45 10 77 54 72 30
175 -52 218 -40 21 -49 21 -912 21 -568 0 -875 3 -881 10 -8 8 -52 221 -52
248 0 4 399 7 888 7 588 0 900 4 925 11 50 13 103 61 132 119 13 25 53 141 90
256 37 115 132 413 211 662 80 249 147 474 150 500 8 66 -25 128 -86 162 l-45
25 -1306 3 -1306 2 -50 254 c-28 143 -58 270 -70 292 -22 44 -68 79 -122 94
-59 16 -847 12 -894 -5z m3455 -1000 c6 -6 -82 -292 -176 -576 -30 -90 -73
-224 -95 -296 l-42 -133 -868 0 -868 0 -31 168 c-31 160 -142 715 -157 777 -4
17 -9 38 -12 48 -4 16 54 17 1120 17 618 0 1126 -2 1129 -5z m-1728 -2011 c24
-23 29 -59 16 -99 -16 -48 -60 -75 -123 -75 -42 0 -54 5 -83 34 -27 27 -34 42
-34 73 0 21 7 49 16 61 14 20 24 22 104 22 67 0 92 -4 104 -16z m1435 -10 c26
-33 27 -70 1 -111 -24 -40 -54 -56 -105 -56 -92 0 -158 102 -109 171 14 20 24
22 104 22 84 0 90 -1 109 -26z"/>
<path d="M6031 3415 c-188 -34 -366 -191 -417 -368 l-18 -64 -31 51 c-37 63
-106 111 -181 126 -85 18 -142 5 -266 -58 -5 -2 -8 69 -8 157 l0 161 -105 0
-105 0 0 -535 0 -535 105 0 105 0 0 233 c0 127 5 249 10 269 13 45 66 93 114
102 51 10 119 -22 143 -66 16 -29 18 -64 21 -285 l4 -253 109 0 109 0 2 162 3
161 29 -54 c16 -30 61 -86 100 -125 109 -109 221 -154 384 -154 96 0 179 21
257 65 80 45 110 77 96 103 -12 23 -140 142 -152 142 -4 0 -25 -11 -45 -25
-113 -77 -276 -56 -369 47 -58 64 -80 120 -79 208 0 100 28 163 101 230 106
97 240 106 356 24 50 -36 67 -36 98 2 8 10 40 39 73 66 l59 49 -48 45 c-65 60
-173 111 -260 124 -86 12 -102 12 -194 -5z"/>
<path d="M1990 2885 l0 -536 113 3 112 3 0 95 c0 52 1 139 3 193 l2 97 185 0
185 0 0 105 0 105 -185 0 -185 0 0 120 0 120 223 2 222 3 3 113 3 112 -341 0
-340 0 0 -535z"/>
<path d="M7960 3285 l0 -135 -35 0 -35 0 0 -75 c0 -41 0 -78 -1 -82 0 -5 16
-12 35 -16 l35 -9 3 -236 c3 -210 5 -241 22 -276 43 -86 150 -127 274 -106
l72 12 0 93 0 93 -57 4 c-91 8 -93 14 -93 234 l0 184 70 0 70 0 0 90 0 90 -70
0 -70 0 0 135 0 135 -110 0 -110 0 0 -135z"/>
<path d="M3574 3155 c-132 -29 -232 -107 -287 -223 -30 -63 -32 -74 -32 -177
0 -102 2 -115 31 -175 35 -74 111 -158 172 -189 99 -50 241 -65 343 -35 64 19
145 63 177 97 l22 24 -58 64 -59 63 -70 -32 c-124 -57 -253 -37 -310 48 -43
62 -52 60 273 60 l297 0 -7 85 c-3 47 -15 107 -25 135 -70 183 -278 297 -467
255z m171 -209 c19 -8 46 -27 60 -42 48 -52 41 -54 -150 -54 -96 0 -175 2
-175 5 0 17 38 59 74 80 48 29 135 34 191 11z"/>
<path d="M4365 3157 c-64 -17 -103 -38 -136 -74 -107 -115 -81 -296 52 -363
21 -11 86 -34 146 -51 154 -44 178 -64 133 -109 -39 -39 -188 -17 -282 40 -18
11 -36 20 -40 20 -3 0 -30 -32 -59 -71 l-53 -72 30 -24 c86 -70 246 -119 354
-109 101 10 158 33 210 85 52 52 70 100 70 185 0 131 -66 187 -288 241 -73 17
-122 46 -122 70 0 50 87 59 195 19 39 -14 77 -28 86 -31 13 -3 27 14 57 72
l40 76 -52 29 c-117 68 -242 92 -341 67z"/>
<path d="M3073 3150 c-37 -8 -114 -52 -133 -74 -21 -27 -30 -18 -30 29 l0 45
-105 0 -105 0 0 -400 0 -400 110 0 110 0 0 218 c0 208 1 219 24 269 16 34 39
63 67 83 43 31 123 60 166 60 22 0 23 3 23 90 l0 90 -47 -1 c-27 -1 -62 -4
-80 -9z"/>
<path d="M6760 3141 c-50 -16 -170 -83 -170 -96 0 -2 11 -30 25 -61 14 -31 25
-62 25 -68 1 -35 17 -36 85 -4 89 41 156 47 219 20 30 -14 50 -30 56 -47 19
-51 18 -52 -113 -58 -189 -9 -276 -49 -323 -152 -55 -116 -12 -249 99 -307 35
-19 59 -22 142 -23 87 0 107 4 157 27 l57 26 3 -21 c3 -21 9 -22 108 -25 l106
-3 -4 283 c-2 156 -8 299 -13 319 -22 87 -103 165 -202 194 -68 20 -189 18
-257 -4z m238 -505 c6 -46 -16 -83 -62 -106 -50 -24 -84 -25 -131 -5 -54 22
-65 74 -24 111 25 23 73 33 149 31 64 -2 65 -3 68 -31z"/>
<path d="M7705 3145 c-21 -8 -58 -28 -82 -44 -36 -26 -43 -28 -44 -13 -4 62 5
57 -111 60 l-108 3 0 -401 0 -400 109 0 110 0 3 234 3 234 30 43 c39 55 68 75
146 103 l64 24 3 86 3 86 -43 0 c-24 -1 -61 -7 -83 -15z"/>
</g>
</svg>
